<svg xmlns="http://www.w3.org/2000/svg" width="1440" height="555" viewBox="0 0 1440 555">
  <path id="cloud-data" d="M1356.768,160.243c-20.563-22.55-65.549-9.389-70.733,20.65-15.379-27.5-67.622-12.211-65.75,19.267-2.678-58.349-51.494-111.168-109.44-118.426S992.563,113.616,975.6,169.517c-16.963,55.872,11.4,121.968,63.59,148.176-44.928-11.29-92.88,37.382-80.9,82.138-15.494-13.968-40.723-15.581-57.859-3.715a42.6,42.6,0,0,0-8.15,7.373c-10.656,12.384-13.824,30.067-10.371,46.022-20.935-20.822-55.12-28.483-79.658-8.554A50.852,50.852,0,0,0,792.1,452.232a91.946,91.946,0,0,0-57.681,21.122c-1.633-.815-3.26-1.636-4.908-2.408,8.844-48.819-53.842-79.92-88.016-37.708,1.7-40.032-48.787-71.626-84.038-52.618-14.083-40.982-76.061-54.461-105.9-23.011,71.021-72.806,46.8-213.178-44.5-257.99C317.376,55.584,194.342,119.2,176.63,216.95c4.2-39.917-47-76-82.8-55.67,11.606-19.008,3.888-47.117-15.782-57.542-19.7-10.454-47.261-1.094-56.534,19.181C30.211,80.842,21.082,37.21,0,0V555H1440V15.149a122.1,122.1,0,0,0-31.164,12.24C1363.651,52.848,1337.962,111.888,1356.768,160.243Z" fill="#f9f9fb"/>
</svg>
